<mxfile host="Electron" modified="2023-10-02T13:20:10.427Z" agent="Mozilla/5.0 (Macintosh; Intel Mac OS X 10_15_7) AppleWebKit/537.36 (KHTML, like Gecko) draw.io/22.0.0 Chrome/114.0.5735.289 Electron/25.8.3 Safari/537.36" etag="SxCsa6AdBk2B0aee1WWB" version="22.0.0" type="device">
  <diagram name="Page-1" id="RcsFwqiE_mqMil7ZwmxQ">
    <mxGraphModel dx="2510" dy="2437" grid="1" gridSize="10" guides="1" tooltips="1" connect="1" arrows="1" fold="1" page="1" pageScale="1" pageWidth="827" pageHeight="1169" background="none" math="0" shadow="1">
      <root>
        <mxCell id="0" />
        <mxCell id="1" parent="0" />
        <mxCell id="xqAe54QocC9WWbVgWtwz-5" value="" style="rounded=1;whiteSpace=wrap;html=1;fillColor=#f5f5f5;fontColor=#333333;strokeColor=#666666;sketch=1;curveFitting=1;jiggle=2;container=0;" vertex="1" parent="1">
          <mxGeometry x="540" y="250" width="250" height="240" as="geometry" />
        </mxCell>
        <mxCell id="xqAe54QocC9WWbVgWtwz-21" style="edgeStyle=orthogonalEdgeStyle;rounded=0;orthogonalLoop=1;jettySize=auto;html=1;entryX=0.5;entryY=1;entryDx=0;entryDy=0;fillColor=#dae8fc;strokeColor=#6c8ebf;strokeWidth=2;" edge="1" parent="1" source="xqAe54QocC9WWbVgWtwz-12" target="xqAe54QocC9WWbVgWtwz-2">
          <mxGeometry relative="1" as="geometry">
            <Array as="points">
              <mxPoint x="710" y="660" />
            </Array>
          </mxGeometry>
        </mxCell>
        <mxCell id="xqAe54QocC9WWbVgWtwz-22" value="OCSP Requests" style="edgeLabel;html=1;align=center;verticalAlign=middle;resizable=0;points=[];labelBackgroundColor=none;" vertex="1" connectable="0" parent="xqAe54QocC9WWbVgWtwz-21">
          <mxGeometry x="-0.0645" relative="1" as="geometry">
            <mxPoint x="-208" y="10" as="offset" />
          </mxGeometry>
        </mxCell>
        <mxCell id="xqAe54QocC9WWbVgWtwz-19" style="edgeStyle=orthogonalEdgeStyle;rounded=0;orthogonalLoop=1;jettySize=auto;html=1;fillColor=#d5e8d4;strokeColor=#82b366;strokeWidth=2;" edge="1" parent="1" source="xqAe54QocC9WWbVgWtwz-12" target="xqAe54QocC9WWbVgWtwz-1">
          <mxGeometry relative="1" as="geometry">
            <Array as="points">
              <mxPoint x="465" y="600" />
              <mxPoint x="465" y="440" />
            </Array>
          </mxGeometry>
        </mxCell>
        <mxCell id="xqAe54QocC9WWbVgWtwz-20" value="Time Stamp" style="edgeLabel;html=1;align=center;verticalAlign=middle;resizable=0;points=[];labelBackgroundColor=none;" vertex="1" connectable="0" parent="xqAe54QocC9WWbVgWtwz-19">
          <mxGeometry x="-0.4486" y="-3" relative="1" as="geometry">
            <mxPoint x="-43" y="7" as="offset" />
          </mxGeometry>
        </mxCell>
        <mxCell id="xqAe54QocC9WWbVgWtwz-25" style="edgeStyle=orthogonalEdgeStyle;rounded=0;orthogonalLoop=1;jettySize=auto;html=1;fillColor=#dae8fc;strokeColor=#6c8ebf;strokeWidth=2;entryX=0;entryY=0;entryDx=0;entryDy=0;" edge="1" parent="1" source="xqAe54QocC9WWbVgWtwz-16" target="xqAe54QocC9WWbVgWtwz-1">
          <mxGeometry relative="1" as="geometry">
            <mxPoint x="400" y="402" as="targetPoint" />
            <Array as="points">
              <mxPoint x="190" y="240" />
              <mxPoint x="465" y="240" />
              <mxPoint x="465" y="402" />
            </Array>
          </mxGeometry>
        </mxCell>
        <mxCell id="xqAe54QocC9WWbVgWtwz-26" value="Time Stamp" style="edgeLabel;html=1;align=center;verticalAlign=middle;resizable=0;points=[];labelBackgroundColor=none;" vertex="1" connectable="0" parent="xqAe54QocC9WWbVgWtwz-25">
          <mxGeometry x="-0.7719" y="-1" relative="1" as="geometry">
            <mxPoint x="132" y="9" as="offset" />
          </mxGeometry>
        </mxCell>
        <mxCell id="xqAe54QocC9WWbVgWtwz-27" style="edgeStyle=orthogonalEdgeStyle;rounded=0;orthogonalLoop=1;jettySize=auto;html=1;fillColor=#dae8fc;strokeColor=#6c8ebf;strokeWidth=2;entryX=1;entryY=0;entryDx=0;entryDy=0;" edge="1" parent="1" source="xqAe54QocC9WWbVgWtwz-16" target="xqAe54QocC9WWbVgWtwz-2">
          <mxGeometry relative="1" as="geometry">
            <mxPoint x="740" y="50" as="targetPoint" />
            <Array as="points">
              <mxPoint x="740" y="170" />
              <mxPoint x="740" y="402" />
            </Array>
          </mxGeometry>
        </mxCell>
        <mxCell id="xqAe54QocC9WWbVgWtwz-28" value="OCSP Requests" style="edgeLabel;html=1;align=center;verticalAlign=middle;resizable=0;points=[];labelBackgroundColor=none;" vertex="1" connectable="0" parent="xqAe54QocC9WWbVgWtwz-27">
          <mxGeometry x="-0.2988" y="1" relative="1" as="geometry">
            <mxPoint x="-147" y="11" as="offset" />
          </mxGeometry>
        </mxCell>
        <mxCell id="xqAe54QocC9WWbVgWtwz-30" style="edgeStyle=orthogonalEdgeStyle;rounded=0;orthogonalLoop=1;jettySize=auto;html=1;entryX=0.25;entryY=1;entryDx=0;entryDy=0;startArrow=classic;startFill=1;fillColor=#f8cecc;strokeColor=#b85450;strokeWidth=2;" edge="1" parent="1" source="xqAe54QocC9WWbVgWtwz-29" target="xqAe54QocC9WWbVgWtwz-16">
          <mxGeometry relative="1" as="geometry">
            <Array as="points">
              <mxPoint x="160" y="330" />
              <mxPoint x="160" y="330" />
            </Array>
          </mxGeometry>
        </mxCell>
        <mxCell id="xqAe54QocC9WWbVgWtwz-32" value="Messaging" style="edgeLabel;html=1;align=center;verticalAlign=middle;resizable=0;points=[];labelBackgroundColor=none;horizontal=0;" vertex="1" connectable="0" parent="xqAe54QocC9WWbVgWtwz-30">
          <mxGeometry x="-0.2235" relative="1" as="geometry">
            <mxPoint x="-10" as="offset" />
          </mxGeometry>
        </mxCell>
        <mxCell id="xqAe54QocC9WWbVgWtwz-31" style="edgeStyle=orthogonalEdgeStyle;rounded=0;orthogonalLoop=1;jettySize=auto;html=1;entryX=0.75;entryY=1;entryDx=0;entryDy=0;startArrow=classic;startFill=1;fillColor=#f8cecc;strokeColor=#b85450;strokeWidth=2;" edge="1" parent="1" source="xqAe54QocC9WWbVgWtwz-29" target="xqAe54QocC9WWbVgWtwz-16">
          <mxGeometry relative="1" as="geometry">
            <Array as="points">
              <mxPoint x="220" y="330" />
              <mxPoint x="220" y="330" />
            </Array>
          </mxGeometry>
        </mxCell>
        <mxCell id="xqAe54QocC9WWbVgWtwz-33" value="OCSP Responses" style="edgeLabel;html=1;align=center;verticalAlign=middle;resizable=0;points=[];labelBackgroundColor=none;horizontal=0;" vertex="1" connectable="0" parent="xqAe54QocC9WWbVgWtwz-31">
          <mxGeometry x="-0.1294" y="3" relative="1" as="geometry">
            <mxPoint x="-7" y="14" as="offset" />
          </mxGeometry>
        </mxCell>
        <mxCell id="xqAe54QocC9WWbVgWtwz-34" style="edgeStyle=orthogonalEdgeStyle;rounded=0;orthogonalLoop=1;jettySize=auto;html=1;entryX=0.25;entryY=1;entryDx=0;entryDy=0;startArrow=classic;startFill=1;exitX=0.25;exitY=0;exitDx=0;exitDy=0;fillColor=#f8cecc;strokeColor=#b85450;strokeWidth=2;" edge="1" parent="1" source="xqAe54QocC9WWbVgWtwz-12">
          <mxGeometry relative="1" as="geometry">
            <mxPoint x="160" y="600" as="sourcePoint" />
            <mxPoint x="160" y="430" as="targetPoint" />
            <Array as="points">
              <mxPoint x="160" y="600" />
              <mxPoint x="160" y="600" />
            </Array>
          </mxGeometry>
        </mxCell>
        <mxCell id="xqAe54QocC9WWbVgWtwz-35" value="Messaging" style="edgeLabel;html=1;align=center;verticalAlign=middle;resizable=0;points=[];labelBackgroundColor=none;horizontal=0;" vertex="1" connectable="0" parent="xqAe54QocC9WWbVgWtwz-34">
          <mxGeometry x="-0.2235" relative="1" as="geometry">
            <mxPoint x="-10" y="-34" as="offset" />
          </mxGeometry>
        </mxCell>
        <mxCell id="xqAe54QocC9WWbVgWtwz-36" style="edgeStyle=orthogonalEdgeStyle;rounded=0;orthogonalLoop=1;jettySize=auto;html=1;startArrow=classic;startFill=1;entryX=0.75;entryY=1;entryDx=0;entryDy=0;exitX=0.75;exitY=0;exitDx=0;exitDy=0;fillColor=#f8cecc;strokeColor=#b85450;strokeWidth=2;" edge="1" parent="1" source="xqAe54QocC9WWbVgWtwz-12" target="xqAe54QocC9WWbVgWtwz-29">
          <mxGeometry relative="1" as="geometry">
            <mxPoint x="220" y="580" as="sourcePoint" />
            <mxPoint x="220" y="450" as="targetPoint" />
            <Array as="points" />
          </mxGeometry>
        </mxCell>
        <mxCell id="xqAe54QocC9WWbVgWtwz-37" value="OCSP Responses" style="edgeLabel;html=1;align=center;verticalAlign=middle;resizable=0;points=[];labelBackgroundColor=none;horizontal=0;" vertex="1" connectable="0" parent="xqAe54QocC9WWbVgWtwz-36">
          <mxGeometry x="-0.1294" y="3" relative="1" as="geometry">
            <mxPoint x="-7" y="-26" as="offset" />
          </mxGeometry>
        </mxCell>
        <mxCell id="xqAe54QocC9WWbVgWtwz-42" value="" style="group" vertex="1" connectable="0" parent="1">
          <mxGeometry x="85" y="585" width="210" height="240" as="geometry" />
        </mxCell>
        <mxCell id="xqAe54QocC9WWbVgWtwz-40" value="" style="rounded=1;whiteSpace=wrap;html=1;fillColor=#d5e8d4;strokeColor=#82b366;glass=0;shadow=1;sketch=1;curveFitting=1;jiggle=2;" vertex="1" parent="xqAe54QocC9WWbVgWtwz-42">
          <mxGeometry width="210" height="240" as="geometry" />
        </mxCell>
        <mxCell id="xqAe54QocC9WWbVgWtwz-9" value="Producer IS" style="ellipse;whiteSpace=wrap;html=1;aspect=fixed;" vertex="1" parent="xqAe54QocC9WWbVgWtwz-42">
          <mxGeometry x="15" y="125" width="80" height="80" as="geometry" />
        </mxCell>
        <mxCell id="xqAe54QocC9WWbVgWtwz-10" value="Admin" style="ellipse;whiteSpace=wrap;html=1;aspect=fixed;" vertex="1" parent="xqAe54QocC9WWbVgWtwz-42">
          <mxGeometry x="125" y="125" width="80" height="80" as="geometry" />
        </mxCell>
        <mxCell id="xqAe54QocC9WWbVgWtwz-12" value="Security Server" style="rounded=1;whiteSpace=wrap;html=1;" vertex="1" parent="xqAe54QocC9WWbVgWtwz-42">
          <mxGeometry x="45" y="15" width="120" height="60" as="geometry" />
        </mxCell>
        <mxCell id="xqAe54QocC9WWbVgWtwz-13" style="edgeStyle=orthogonalEdgeStyle;rounded=0;orthogonalLoop=1;jettySize=auto;html=1;entryX=0.325;entryY=1.033;entryDx=0;entryDy=0;entryPerimeter=0;" edge="1" parent="xqAe54QocC9WWbVgWtwz-42" source="xqAe54QocC9WWbVgWtwz-9" target="xqAe54QocC9WWbVgWtwz-12">
          <mxGeometry relative="1" as="geometry" />
        </mxCell>
        <mxCell id="xqAe54QocC9WWbVgWtwz-14" style="edgeStyle=orthogonalEdgeStyle;rounded=0;orthogonalLoop=1;jettySize=auto;html=1;entryX=0.683;entryY=1.033;entryDx=0;entryDy=0;entryPerimeter=0;" edge="1" parent="xqAe54QocC9WWbVgWtwz-42" source="xqAe54QocC9WWbVgWtwz-10" target="xqAe54QocC9WWbVgWtwz-12">
          <mxGeometry relative="1" as="geometry" />
        </mxCell>
        <mxCell id="xqAe54QocC9WWbVgWtwz-41" value="Local Network" style="text;html=1;strokeColor=none;fillColor=none;align=center;verticalAlign=middle;whiteSpace=wrap;rounded=0;" vertex="1" parent="xqAe54QocC9WWbVgWtwz-42">
          <mxGeometry x="75" y="205" width="60" height="30" as="geometry" />
        </mxCell>
        <mxCell id="xqAe54QocC9WWbVgWtwz-43" value="" style="group" vertex="1" connectable="0" parent="1">
          <mxGeometry x="90" y="-20" width="210" height="240" as="geometry" />
        </mxCell>
        <mxCell id="xqAe54QocC9WWbVgWtwz-38" value="" style="rounded=1;whiteSpace=wrap;html=1;fillColor=#dae8fc;strokeColor=#6c8ebf;glass=0;shadow=1;sketch=1;curveFitting=1;jiggle=2;" vertex="1" parent="xqAe54QocC9WWbVgWtwz-43">
          <mxGeometry width="210" height="240" as="geometry" />
        </mxCell>
        <mxCell id="xqAe54QocC9WWbVgWtwz-8" value="Consumer IS" style="ellipse;whiteSpace=wrap;html=1;aspect=fixed;" vertex="1" parent="xqAe54QocC9WWbVgWtwz-43">
          <mxGeometry x="10" y="40" width="80" height="80" as="geometry" />
        </mxCell>
        <mxCell id="xqAe54QocC9WWbVgWtwz-15" value="Admin" style="ellipse;whiteSpace=wrap;html=1;aspect=fixed;" vertex="1" parent="xqAe54QocC9WWbVgWtwz-43">
          <mxGeometry x="120" y="40" width="80" height="80" as="geometry" />
        </mxCell>
        <mxCell id="xqAe54QocC9WWbVgWtwz-16" value="Security Server" style="rounded=1;whiteSpace=wrap;html=1;" vertex="1" parent="xqAe54QocC9WWbVgWtwz-43">
          <mxGeometry x="40" y="160" width="120" height="60" as="geometry" />
        </mxCell>
        <mxCell id="xqAe54QocC9WWbVgWtwz-17" style="edgeStyle=orthogonalEdgeStyle;rounded=0;orthogonalLoop=1;jettySize=auto;html=1;entryX=0.25;entryY=0;entryDx=0;entryDy=0;startArrow=classic;startFill=1;endArrow=none;endFill=0;" edge="1" parent="xqAe54QocC9WWbVgWtwz-43" source="xqAe54QocC9WWbVgWtwz-8" target="xqAe54QocC9WWbVgWtwz-16">
          <mxGeometry relative="1" as="geometry" />
        </mxCell>
        <mxCell id="xqAe54QocC9WWbVgWtwz-18" style="edgeStyle=orthogonalEdgeStyle;rounded=0;orthogonalLoop=1;jettySize=auto;html=1;entryX=0.75;entryY=0;entryDx=0;entryDy=0;" edge="1" parent="xqAe54QocC9WWbVgWtwz-43" source="xqAe54QocC9WWbVgWtwz-15" target="xqAe54QocC9WWbVgWtwz-16">
          <mxGeometry relative="1" as="geometry" />
        </mxCell>
        <mxCell id="xqAe54QocC9WWbVgWtwz-39" value="Local Network" style="text;html=1;strokeColor=none;fillColor=none;align=center;verticalAlign=middle;whiteSpace=wrap;rounded=0;" vertex="1" parent="xqAe54QocC9WWbVgWtwz-43">
          <mxGeometry x="75" width="60" height="30" as="geometry" />
        </mxCell>
        <mxCell id="xqAe54QocC9WWbVgWtwz-46" value="" style="group" vertex="1" connectable="0" parent="1">
          <mxGeometry x="50" y="355" width="260" height="90" as="geometry" />
        </mxCell>
        <mxCell id="xqAe54QocC9WWbVgWtwz-44" value="" style="rounded=1;whiteSpace=wrap;html=1;fillColor=#ffe6cc;strokeColor=#d79b00;sketch=1;curveFitting=1;jiggle=2;" vertex="1" parent="xqAe54QocC9WWbVgWtwz-46">
          <mxGeometry x="10" width="250" height="90" as="geometry" />
        </mxCell>
        <mxCell id="xqAe54QocC9WWbVgWtwz-29" value="Security Server&lt;br&gt;Exchange" style="rounded=1;whiteSpace=wrap;html=1;" vertex="1" parent="xqAe54QocC9WWbVgWtwz-46">
          <mxGeometry x="80" y="15" width="120" height="60" as="geometry" />
        </mxCell>
        <mxCell id="xqAe54QocC9WWbVgWtwz-45" value="Local Network" style="text;html=1;strokeColor=none;fillColor=none;align=center;verticalAlign=middle;whiteSpace=wrap;rounded=0;" vertex="1" parent="xqAe54QocC9WWbVgWtwz-46">
          <mxGeometry x="10" y="30" width="60" height="30" as="geometry" />
        </mxCell>
        <mxCell id="xqAe54QocC9WWbVgWtwz-55" style="edgeStyle=orthogonalEdgeStyle;rounded=0;orthogonalLoop=1;jettySize=auto;html=1;entryX=1;entryY=0.25;entryDx=0;entryDy=0;fillColor=#dae8fc;strokeColor=#6c8ebf;strokeWidth=2;" edge="1" parent="1" source="xqAe54QocC9WWbVgWtwz-16" target="xqAe54QocC9WWbVgWtwz-49">
          <mxGeometry relative="1" as="geometry">
            <Array as="points">
              <mxPoint x="-40" y="150" />
              <mxPoint x="-40" y="255" />
            </Array>
          </mxGeometry>
        </mxCell>
        <mxCell id="xqAe54QocC9WWbVgWtwz-58" value="Configuration + Certification" style="edgeLabel;html=1;align=center;verticalAlign=middle;resizable=0;points=[];labelBackgroundColor=none;" vertex="1" connectable="0" parent="xqAe54QocC9WWbVgWtwz-55">
          <mxGeometry x="0.7718" relative="1" as="geometry">
            <mxPoint x="41" y="-10" as="offset" />
          </mxGeometry>
        </mxCell>
        <mxCell id="xqAe54QocC9WWbVgWtwz-56" style="edgeStyle=orthogonalEdgeStyle;rounded=0;orthogonalLoop=1;jettySize=auto;html=1;startArrow=classic;startFill=1;endArrow=none;endFill=0;entryX=1;entryY=0.25;entryDx=0;entryDy=0;fillColor=#dae8fc;strokeColor=#6c8ebf;strokeWidth=2;" edge="1" parent="1" target="xqAe54QocC9WWbVgWtwz-50">
          <mxGeometry relative="1" as="geometry">
            <mxPoint x="130" y="165" as="sourcePoint" />
            <mxPoint x="-220" y="320" as="targetPoint" />
            <Array as="points">
              <mxPoint x="-30" y="165" />
              <mxPoint x="-30" y="345" />
            </Array>
          </mxGeometry>
        </mxCell>
        <mxCell id="xqAe54QocC9WWbVgWtwz-60" value="Message Traffic" style="edgeLabel;html=1;align=center;verticalAlign=middle;resizable=0;points=[];labelBackgroundColor=none;" vertex="1" connectable="0" parent="xqAe54QocC9WWbVgWtwz-56">
          <mxGeometry x="0.8458" relative="1" as="geometry">
            <mxPoint x="24" y="-11" as="offset" />
          </mxGeometry>
        </mxCell>
        <mxCell id="xqAe54QocC9WWbVgWtwz-57" style="edgeStyle=orthogonalEdgeStyle;rounded=0;orthogonalLoop=1;jettySize=auto;html=1;fillColor=#dae8fc;strokeColor=#6c8ebf;strokeWidth=2;" edge="1" parent="1" source="xqAe54QocC9WWbVgWtwz-16">
          <mxGeometry relative="1" as="geometry">
            <mxPoint x="-280" y="450" as="targetPoint" />
            <Array as="points">
              <mxPoint x="-20" y="190" />
              <mxPoint x="-20" y="450" />
              <mxPoint x="-280" y="450" />
            </Array>
          </mxGeometry>
        </mxCell>
        <mxCell id="xqAe54QocC9WWbVgWtwz-59" value="Traffic Request" style="edgeLabel;html=1;align=center;verticalAlign=middle;resizable=0;points=[];labelBackgroundColor=none;" vertex="1" connectable="0" parent="xqAe54QocC9WWbVgWtwz-57">
          <mxGeometry x="0.8309" y="1" relative="1" as="geometry">
            <mxPoint x="13" y="-11" as="offset" />
          </mxGeometry>
        </mxCell>
        <mxCell id="xqAe54QocC9WWbVgWtwz-61" style="edgeStyle=orthogonalEdgeStyle;rounded=0;orthogonalLoop=1;jettySize=auto;html=1;entryX=1;entryY=0.75;entryDx=0;entryDy=0;fillColor=#d5e8d4;strokeColor=#82b366;strokeWidth=2;" edge="1" parent="1" source="xqAe54QocC9WWbVgWtwz-12" target="xqAe54QocC9WWbVgWtwz-49">
          <mxGeometry relative="1" as="geometry">
            <Array as="points">
              <mxPoint x="-40" y="610" />
              <mxPoint x="-40" y="285" />
            </Array>
          </mxGeometry>
        </mxCell>
        <mxCell id="xqAe54QocC9WWbVgWtwz-67" value="Configuration + Certification" style="edgeLabel;html=1;align=center;verticalAlign=middle;resizable=0;points=[];labelBackgroundColor=none;" vertex="1" connectable="0" parent="xqAe54QocC9WWbVgWtwz-61">
          <mxGeometry x="0.7993" y="1" relative="1" as="geometry">
            <mxPoint x="26" y="8" as="offset" />
          </mxGeometry>
        </mxCell>
        <mxCell id="xqAe54QocC9WWbVgWtwz-62" style="edgeStyle=orthogonalEdgeStyle;rounded=0;orthogonalLoop=1;jettySize=auto;html=1;entryX=1;entryY=0.75;entryDx=0;entryDy=0;startArrow=classic;startFill=1;endArrow=classic;endFill=1;fillColor=#d5e8d4;strokeColor=#82b366;strokeWidth=2;" edge="1" parent="1" source="xqAe54QocC9WWbVgWtwz-12" target="xqAe54QocC9WWbVgWtwz-50">
          <mxGeometry relative="1" as="geometry">
            <mxPoint x="-250" y="380" as="targetPoint" />
            <Array as="points">
              <mxPoint x="-50" y="630" />
              <mxPoint x="-50" y="380" />
              <mxPoint x="-280" y="380" />
            </Array>
          </mxGeometry>
        </mxCell>
        <mxCell id="xqAe54QocC9WWbVgWtwz-66" value="Message Traffic" style="edgeLabel;html=1;align=center;verticalAlign=middle;resizable=0;points=[];labelBackgroundColor=none;" vertex="1" connectable="0" parent="xqAe54QocC9WWbVgWtwz-62">
          <mxGeometry x="0.8195" y="1" relative="1" as="geometry">
            <mxPoint x="15" y="9" as="offset" />
          </mxGeometry>
        </mxCell>
        <mxCell id="xqAe54QocC9WWbVgWtwz-63" style="edgeStyle=orthogonalEdgeStyle;rounded=0;orthogonalLoop=1;jettySize=auto;html=1;entryX=1;entryY=0.75;entryDx=0;entryDy=0;fillColor=#d5e8d4;strokeColor=#82b366;strokeWidth=2;" edge="1" parent="1" source="xqAe54QocC9WWbVgWtwz-12" target="xqAe54QocC9WWbVgWtwz-51">
          <mxGeometry relative="1" as="geometry">
            <Array as="points">
              <mxPoint x="-60" y="650" />
              <mxPoint x="-60" y="475" />
            </Array>
          </mxGeometry>
        </mxCell>
        <mxCell id="xqAe54QocC9WWbVgWtwz-65" value="Traffic Request" style="edgeLabel;html=1;align=center;verticalAlign=middle;resizable=0;points=[];labelBackgroundColor=none;" vertex="1" connectable="0" parent="xqAe54QocC9WWbVgWtwz-63">
          <mxGeometry x="0.8274" relative="1" as="geometry">
            <mxPoint x="20" y="11" as="offset" />
          </mxGeometry>
        </mxCell>
        <mxCell id="xqAe54QocC9WWbVgWtwz-71" value="" style="group" vertex="1" connectable="0" parent="1">
          <mxGeometry x="-600" y="190" width="340" height="330" as="geometry" />
        </mxCell>
        <mxCell id="xqAe54QocC9WWbVgWtwz-68" value="" style="rounded=1;whiteSpace=wrap;html=1;fillColor=#e1d5e7;strokeColor=#9673a6;sketch=1;curveFitting=1;jiggle=2;" vertex="1" parent="xqAe54QocC9WWbVgWtwz-71">
          <mxGeometry width="340" height="330" as="geometry" />
        </mxCell>
        <mxCell id="xqAe54QocC9WWbVgWtwz-48" value="Admin" style="ellipse;whiteSpace=wrap;html=1;aspect=fixed;" vertex="1" parent="xqAe54QocC9WWbVgWtwz-71">
          <mxGeometry x="40" y="130" width="80" height="80" as="geometry" />
        </mxCell>
        <mxCell id="xqAe54QocC9WWbVgWtwz-49" value="Central Server" style="rounded=1;whiteSpace=wrap;html=1;" vertex="1" parent="xqAe54QocC9WWbVgWtwz-71">
          <mxGeometry x="200" y="50" width="120" height="60" as="geometry" />
        </mxCell>
        <mxCell id="xqAe54QocC9WWbVgWtwz-52" style="edgeStyle=orthogonalEdgeStyle;rounded=0;orthogonalLoop=1;jettySize=auto;html=1;entryX=0;entryY=0.5;entryDx=0;entryDy=0;fillColor=#e1d5e7;strokeColor=#9673a6;strokeWidth=2;" edge="1" parent="xqAe54QocC9WWbVgWtwz-71" source="xqAe54QocC9WWbVgWtwz-48" target="xqAe54QocC9WWbVgWtwz-49">
          <mxGeometry relative="1" as="geometry">
            <Array as="points">
              <mxPoint x="160" y="140" />
              <mxPoint x="160" y="80" />
            </Array>
          </mxGeometry>
        </mxCell>
        <mxCell id="xqAe54QocC9WWbVgWtwz-50" value="Monitoring" style="rounded=1;whiteSpace=wrap;html=1;" vertex="1" parent="xqAe54QocC9WWbVgWtwz-71">
          <mxGeometry x="200" y="140" width="120" height="60" as="geometry" />
        </mxCell>
        <mxCell id="xqAe54QocC9WWbVgWtwz-53" style="edgeStyle=orthogonalEdgeStyle;rounded=0;orthogonalLoop=1;jettySize=auto;html=1;entryX=0;entryY=0.5;entryDx=0;entryDy=0;fillColor=#e1d5e7;strokeColor=#9673a6;strokeWidth=2;" edge="1" parent="xqAe54QocC9WWbVgWtwz-71" source="xqAe54QocC9WWbVgWtwz-48" target="xqAe54QocC9WWbVgWtwz-50">
          <mxGeometry relative="1" as="geometry" />
        </mxCell>
        <mxCell id="xqAe54QocC9WWbVgWtwz-51" value="Security Server Management" style="rounded=1;whiteSpace=wrap;html=1;" vertex="1" parent="xqAe54QocC9WWbVgWtwz-71">
          <mxGeometry x="200" y="240" width="120" height="60" as="geometry" />
        </mxCell>
        <mxCell id="xqAe54QocC9WWbVgWtwz-54" style="edgeStyle=orthogonalEdgeStyle;rounded=0;orthogonalLoop=1;jettySize=auto;html=1;entryX=0;entryY=0.5;entryDx=0;entryDy=0;fillColor=#e1d5e7;strokeColor=#9673a6;strokeWidth=2;" edge="1" parent="xqAe54QocC9WWbVgWtwz-71" source="xqAe54QocC9WWbVgWtwz-48" target="xqAe54QocC9WWbVgWtwz-51">
          <mxGeometry relative="1" as="geometry">
            <Array as="points">
              <mxPoint x="160" y="200" />
              <mxPoint x="160" y="270" />
            </Array>
          </mxGeometry>
        </mxCell>
        <mxCell id="xqAe54QocC9WWbVgWtwz-69" value="Local lNetwork" style="text;html=1;strokeColor=none;fillColor=none;align=center;verticalAlign=middle;whiteSpace=wrap;rounded=0;" vertex="1" parent="xqAe54QocC9WWbVgWtwz-71">
          <mxGeometry x="40" y="30" width="60" height="30" as="geometry" />
        </mxCell>
        <mxCell id="xqAe54QocC9WWbVgWtwz-72" value="External System" style="text;html=1;strokeColor=none;fillColor=none;align=center;verticalAlign=middle;whiteSpace=wrap;rounded=0;" vertex="1" parent="1">
          <mxGeometry x="550" y="290" width="60" height="30" as="geometry" />
        </mxCell>
        <mxCell id="xqAe54QocC9WWbVgWtwz-1" value="Time Stamping Service" style="ellipse;whiteSpace=wrap;html=1;aspect=fixed;" vertex="1" parent="1">
          <mxGeometry x="570" y="390" width="80" height="80" as="geometry" />
        </mxCell>
        <mxCell id="xqAe54QocC9WWbVgWtwz-2" value="OCSP" style="ellipse;whiteSpace=wrap;html=1;aspect=fixed;" vertex="1" parent="1">
          <mxGeometry x="680" y="390" width="80" height="80" as="geometry" />
        </mxCell>
        <mxCell id="xqAe54QocC9WWbVgWtwz-4" style="edgeStyle=orthogonalEdgeStyle;rounded=0;orthogonalLoop=1;jettySize=auto;html=1;entryX=0.5;entryY=0;entryDx=0;entryDy=0;endArrow=none;endFill=0;fillColor=#f5f5f5;strokeColor=#666666;strokeWidth=2;" edge="1" parent="1" source="xqAe54QocC9WWbVgWtwz-3" target="xqAe54QocC9WWbVgWtwz-2">
          <mxGeometry relative="1" as="geometry" />
        </mxCell>
        <mxCell id="xqAe54QocC9WWbVgWtwz-3" value="Certification Authority" style="ellipse;whiteSpace=wrap;html=1;aspect=fixed;" vertex="1" parent="1">
          <mxGeometry x="620" y="270" width="80" height="80" as="geometry" />
        </mxCell>
      </root>
    </mxGraphModel>
  </diagram>
</mxfile>
